<svg width="32" height="32" viewBox="0 0 32 32" fill="none" xmlns="http://www.w3.org/2000/svg">
<g opacity="0.8">
<path d="M19.2143 9.33333C19.2143 9.03865 19.3272 8.75603 19.5281 8.54766C19.729 8.33929 20.0016 8.22222 20.2857 8.22222H28.8571C29.1413 8.22222 29.4138 8.33929 29.6148 8.54766C29.8157 8.75603 29.9286 9.03865 29.9286 9.33333C29.9286 9.62802 29.8157 9.91063 29.6148 10.119C29.4138 10.3274 29.1413 10.4444 28.8571 10.4444H20.2857C20.0016 10.4444 19.729 10.3274 19.5281 10.119C19.3272 9.91063 19.2143 9.62802 19.2143 9.33333ZM16 20.1667C16 21.7138 15.4074 23.1975 14.3525 24.2915C13.2976 25.3854 11.8668 26 10.375 26H2.07143C1.78727 26 1.51475 25.8829 1.31381 25.6746C1.11288 25.4662 1 25.1836 1 24.8889V7.11111C1 6.81643 1.11288 6.53381 1.31381 6.32544C1.51475 6.11706 1.78727 6 2.07143 6H9.83929C10.864 6.00113 11.8646 6.32304 12.71 6.92361C13.5554 7.52417 14.2063 8.37542 14.5775 9.36594C14.9487 10.3565 15.0229 11.4401 14.7905 12.4751C14.558 13.5101 14.0296 14.4482 13.2746 15.1667C14.1062 15.6855 14.7942 16.4186 15.2718 17.2947C15.7494 18.1709 16.0002 19.1602 16 20.1667ZM3.14286 14.3333H9.83929C10.6207 14.3333 11.3702 14.0114 11.9227 13.4384C12.4753 12.8654 12.7857 12.0882 12.7857 11.2778C12.7857 10.4674 12.4753 9.6902 11.9227 9.11717C11.3702 8.54415 10.6207 8.22222 9.83929 8.22222H3.14286V14.3333ZM13.8571 20.1667C13.8571 19.6924 13.7671 19.2229 13.5921 18.7848C13.4171 18.3466 13.1606 17.9485 12.8372 17.6132C12.5139 17.2779 12.13 17.0119 11.7076 16.8304C11.2851 16.649 10.8323 16.5556 10.375 16.5556H3.14286V23.7778H10.375C10.8323 23.7778 11.2851 23.6844 11.7076 23.5029C12.13 23.3214 12.5139 23.0554 12.8372 22.7201C13.1606 22.3848 13.4171 21.9867 13.5921 21.5486C13.7671 21.1105 13.8571 20.6409 13.8571 20.1667ZM31 19.3333C31 19.628 30.8871 19.9106 30.6862 20.119C30.4853 20.3274 30.2127 20.4444 29.9286 20.4444H20.4196C20.6213 21.2552 21.0398 21.9904 21.6268 22.5653C22.2137 23.1402 22.9454 23.5315 23.7374 23.6941C24.5294 23.8566 25.3496 23.7838 26.1035 23.4841C26.8574 23.1844 27.5144 22.67 27.9987 22C28.0832 21.8833 28.189 21.7849 28.3102 21.7106C28.4313 21.6363 28.5654 21.5875 28.7048 21.5669C28.8441 21.5464 28.986 21.5545 29.1223 21.5907C29.2587 21.627 29.3868 21.6908 29.4993 21.7785C29.6119 21.8661 29.7067 21.9759 29.7784 22.1015C29.85 22.2272 29.8971 22.3662 29.9169 22.5107C29.9368 22.6552 29.929 22.8024 29.894 22.9438C29.859 23.0851 29.7975 23.218 29.7129 23.3347C28.7967 24.6007 27.4759 25.4873 25.987 25.8359C24.4981 26.1845 22.9382 25.9722 21.5863 25.2372C20.2345 24.5022 19.1789 23.2923 18.6085 21.824C18.0382 20.3558 17.9902 18.725 18.4732 17.2234C18.9562 15.7218 19.9386 14.4474 21.2447 13.6283C22.5508 12.8091 24.0954 12.4987 25.6021 12.7524C27.1087 13.0062 28.4791 13.8077 29.4681 15.0134C30.4571 16.2191 31.0001 17.7504 31 19.3333ZM28.7232 18.2222C28.4872 17.2662 27.951 16.4188 27.1993 15.8137C26.4476 15.2086 25.523 14.8802 24.5714 14.8802C23.6198 14.8802 22.6953 15.2086 21.9435 15.8137C21.1918 16.4188 20.6557 17.2662 20.4196 18.2222H28.7232Z" fill="black"/>
</g>
</svg>
