<svg width="22" height="22" viewBox="0 0 22 22" fill="none" xmlns="http://www.w3.org/2000/svg">
<g opacity="0.5">
<path d="M11 2.0625C9.23233 2.0625 7.50436 2.58668 6.0346 3.56874C4.56483 4.55081 3.41929 5.94665 2.74283 7.57977C2.06637 9.21288 1.88938 11.0099 2.23424 12.7436C2.57909 14.4773 3.43031 16.0698 4.68024 17.3198C5.93017 18.5697 7.52268 19.4209 9.25638 19.7658C10.9901 20.1106 12.7871 19.9336 14.4202 19.2572C16.0534 18.5807 17.4492 17.4352 18.4313 15.9654C19.4133 14.4956 19.9375 12.7677 19.9375 11C19.935 8.6304 18.9926 6.35856 17.317 4.683C15.6414 3.00743 13.3696 2.065 11 2.0625ZM18.5324 10.328C18.3136 10.3177 18.0944 10.3125 17.875 10.3125C16.5997 10.3129 15.33 10.4816 14.0989 10.8144C13.7988 9.9237 13.4116 9.06476 12.9431 8.25C14.1651 7.5131 15.2713 6.59943 16.2259 5.53867C17.5504 6.80235 18.3702 8.50455 18.5324 10.328ZM15.1491 4.68016C14.2903 5.62374 13.2978 6.43619 12.2031 7.09156C11.2863 5.80114 10.165 4.66906 8.88336 3.74C9.93475 3.43307 11.0403 3.35818 12.1234 3.52051C13.2066 3.68284 14.2416 4.07851 15.1568 4.68016H15.1491ZM7.36055 4.3725C8.76528 5.25714 9.98994 6.39957 10.9699 7.73953C9.25481 8.53003 7.38852 8.93876 5.5 8.9375C4.91715 8.9372 4.33495 8.89844 3.75719 8.82148C4.33208 6.92528 5.62514 5.32876 7.36055 4.3725ZM3.4375 11C3.43747 10.7232 3.45267 10.4467 3.48305 10.1716C4.15127 10.2654 4.82523 10.3125 5.5 10.3125C7.65664 10.3145 9.78628 9.83293 11.7322 8.90312C12.1609 9.64347 12.5153 10.4244 12.7901 11.2346C12.0598 11.509 11.353 11.8423 10.6769 12.2315C8.79061 13.3212 7.17326 14.8208 5.9443 16.6195C5.15511 15.9115 4.52397 15.0451 4.09204 14.0769C3.66012 13.1086 3.43709 12.0602 3.4375 11ZM7.04688 17.4453C8.16266 15.795 9.63903 14.4201 11.3644 13.4243C11.9412 13.0914 12.5432 12.8041 13.1648 12.5649C13.3775 13.5089 13.485 14.4736 13.4853 15.4412C13.4858 16.382 13.3852 17.3201 13.1854 18.2394C12.1641 18.5479 11.0891 18.6366 10.0311 18.4998C8.97307 18.3629 7.95602 18.0035 7.04688 17.4453ZM14.7005 17.594C14.8066 16.8827 14.86 16.1646 14.8603 15.4455C14.8602 14.3325 14.7319 13.2232 14.4779 12.1395C15.5856 11.8406 16.7277 11.6886 17.875 11.6875C18.0927 11.6875 18.3107 11.6929 18.529 11.7038C18.4139 12.9217 18.0055 14.0935 17.3388 15.1192C16.672 16.1448 15.7668 16.9936 14.7005 17.5931V17.594Z" fill="#2F2F2F"/>
</g>
</svg>
