<svg width="28" height="28" viewBox="0 0 28 28" fill="none" xmlns="http://www.w3.org/2000/svg">
<g opacity="0.8">
<path d="M14 2.625C11.7502 2.625 9.551 3.29213 7.68039 4.54203C5.80978 5.79193 4.35182 7.56847 3.49088 9.64698C2.62993 11.7255 2.40467 14.0126 2.84357 16.2192C3.28248 18.4257 4.36584 20.4525 5.95667 22.0433C7.54749 23.6342 9.57432 24.7175 11.7809 25.1564C13.9874 25.5953 16.2745 25.3701 18.353 24.5091C20.4315 23.6482 22.2081 22.1902 23.458 20.3196C24.7079 18.449 25.375 16.2498 25.375 14C25.3718 10.9841 24.1724 8.09271 22.0398 5.96018C19.9073 3.82764 17.0159 2.62818 14 2.625ZM23.5867 13.1447C23.3082 13.1316 23.0293 13.125 22.75 13.125C21.1269 13.1255 19.511 13.3402 17.9441 13.7638C17.5621 12.6302 17.0693 11.537 16.473 10.5C18.0283 9.56213 19.4362 8.39927 20.6511 7.04922C22.3368 8.65754 23.3802 10.824 23.5867 13.1447ZM19.2806 5.95656C18.1877 7.15748 16.9244 8.19152 15.5313 9.02562C14.3644 7.38327 12.9373 5.94244 11.3061 4.76C12.6442 4.36937 14.0512 4.27405 15.4298 4.48065C16.8084 4.68725 18.1256 5.19083 19.2905 5.95656H19.2806ZM9.36797 5.565C11.1558 6.6909 12.7145 8.14491 13.9617 9.85031C11.7788 10.8564 9.40358 11.3766 7 11.375C6.25819 11.3746 5.5172 11.3253 4.78188 11.2273C5.51355 8.81399 7.15927 6.78206 9.36797 5.565ZM4.37501 14C4.37496 13.6477 4.39431 13.2958 4.43297 12.9456C5.28344 13.065 6.1412 13.125 7 13.125C9.74482 13.1276 12.4553 12.5146 14.9319 11.3313C15.4775 12.2735 15.9285 13.2675 16.2783 14.2986C15.3488 14.6478 14.4493 15.0721 13.5888 15.5673C11.188 16.9543 9.1296 18.8628 7.56547 21.152C6.56104 20.251 5.75778 19.1483 5.20806 17.916C4.65833 16.6837 4.37448 15.3494 4.37501 14ZM8.96875 22.2031C10.3888 20.1028 12.2679 18.3528 14.4638 17.0855C15.1979 16.6618 15.964 16.2961 16.7552 15.9917C17.0259 17.1932 17.1627 18.4209 17.1631 19.6525C17.1637 20.8498 17.0357 22.0438 16.7814 23.2138C15.4816 23.6064 14.1134 23.7194 12.7668 23.5452C11.4203 23.371 10.1258 22.9136 8.96875 22.2031ZM18.7097 22.3923C18.8447 21.4871 18.9127 20.5732 18.9131 19.658C18.913 18.2414 18.7496 16.8295 18.4264 15.4503C19.8362 15.0699 21.2898 14.8765 22.75 14.875C23.0271 14.875 23.3045 14.8819 23.5823 14.8958C23.4359 16.4458 22.9161 17.9372 22.0675 19.2426C21.219 20.5479 20.0668 21.6283 18.7097 22.3913V22.3923Z" fill="black"/>
</g>
</svg>
