<svg width="22" height="22" viewBox="0 0 22 22" fill="none" xmlns="http://www.w3.org/2000/svg">
<g opacity="0.5">
<path d="M10.9375 6.8125C10.1217 6.8125 9.32413 7.05443 8.64577 7.50769C7.96742 7.96095 7.43871 8.60519 7.1265 9.35893C6.81429 10.1127 6.7326 10.9421 6.89176 11.7422C7.05093 12.5424 7.44379 13.2774 8.02068 13.8543C8.59758 14.4312 9.33258 14.8241 10.1328 14.9832C10.9329 15.1424 11.7623 15.0607 12.5161 14.7485C13.2698 14.4363 13.9141 13.9076 14.3673 13.2292C14.8206 12.5509 15.0625 11.7533 15.0625 10.9375C15.0614 9.84383 14.6264 8.79528 13.8531 8.02194C13.0797 7.2486 12.0312 6.81364 10.9375 6.8125ZM10.9375 13.6875C10.3936 13.6875 9.86192 13.5262 9.40968 13.224C8.95745 12.9219 8.60497 12.4924 8.39683 11.9899C8.18869 11.4874 8.13423 10.9344 8.24034 10.401C8.34645 9.86755 8.60836 9.37755 8.99296 8.99296C9.37755 8.60836 9.86755 8.34645 10.401 8.24034C10.9344 8.13423 11.4874 8.18869 11.9899 8.39683C12.4924 8.60497 12.9219 8.95745 13.224 9.40968C13.5262 9.86192 13.6875 10.3936 13.6875 10.9375C13.6875 11.6668 13.3978 12.3663 12.882 12.882C12.3663 13.3978 11.6668 13.6875 10.9375 13.6875ZM15.0625 2H6.8125C5.53656 2.00136 4.31328 2.50883 3.41106 3.41106C2.50883 4.31328 2.00136 5.53656 2 6.8125V15.0625C2.00136 16.3384 2.50883 17.5617 3.41106 18.4639C4.31328 19.3662 5.53656 19.8736 6.8125 19.875H15.0625C16.3384 19.8736 17.5617 19.3662 18.4639 18.4639C19.3662 17.5617 19.8736 16.3384 19.875 15.0625V6.8125C19.8736 5.53656 19.3662 4.31328 18.4639 3.41106C17.5617 2.50883 16.3384 2.00136 15.0625 2ZM18.5 15.0625C18.5 15.9742 18.1378 16.8485 17.4932 17.4932C16.8485 18.1378 15.9742 18.5 15.0625 18.5H6.8125C5.90082 18.5 5.02648 18.1378 4.38182 17.4932C3.73716 16.8485 3.375 15.9742 3.375 15.0625V6.8125C3.375 5.90082 3.73716 5.02648 4.38182 4.38182C5.02648 3.73716 5.90082 3.375 6.8125 3.375H15.0625C15.9742 3.375 16.8485 3.73716 17.4932 4.38182C18.1378 5.02648 18.5 5.90082 18.5 6.8125V15.0625ZM16.4375 6.46875C16.4375 6.67271 16.377 6.87209 16.2637 7.04168C16.1504 7.21127 15.9893 7.34345 15.8009 7.4215C15.6125 7.49955 15.4051 7.51998 15.2051 7.48019C15.005 7.44039 14.8213 7.34218 14.677 7.19795C14.5328 7.05373 14.4346 6.86998 14.3948 6.66994C14.355 6.46989 14.3754 6.26254 14.4535 6.07411C14.5316 5.88567 14.6637 5.72461 14.8333 5.6113C15.0029 5.49798 15.2023 5.4375 15.4062 5.4375C15.6798 5.4375 15.9421 5.54615 16.1355 5.73955C16.3288 5.93294 16.4375 6.19525 16.4375 6.46875Z" fill="#5F5F5F"/>
</g>
</svg>
