<svg width="22" height="22" viewBox="0 0 22 22" fill="none" xmlns="http://www.w3.org/2000/svg">
<path fill-rule="evenodd" clip-rule="evenodd" d="M5.57857 0H0.0785719V5.5C0.0785719 8.30082 2.17213 10.6127 4.87971 10.956C2.13417 11.2642 4.64227e-07 13.5936 2.40413e-07 16.4215L0 21.9215H5.5C8.30082 21.9215 10.6127 19.8278 10.956 17.1203C11.2642 19.8659 13.5936 22 16.4215 22H21.9215V16.5C21.9215 13.6992 19.8278 11.3873 17.1203 11.044C19.8659 10.7358 22 8.40642 22 5.57857V0.0785715L16.5 0.0785712C13.6992 0.078571 11.3873 2.17213 11.044 4.87971C10.7358 2.13417 8.40642 0 5.57857 0Z" fill="#82FF1F"/>
</svg>
