<svg width="751" height="783" viewBox="0 0 751 783" fill="none" xmlns="http://www.w3.org/2000/svg">
<path d="M376 195.75V0.5H750.5V195.75C750.5 303.603 666.645 391 563.25 391C459.855 391 376 303.603 376 195.75ZM375 195.75V391H187.75H0.5V0.5H187.75C291.146 0.5 375 87.8967 375 195.75ZM563.25 392H750.5V782.5H563.25C459.855 782.5 376 695.103 376 587.25V392H563.25ZM375 587.25V782.5H0.5V587.25C0.5 479.397 84.3543 392 187.75 392C291.146 392 375 479.397 375 587.25Z" fill="white" fill-opacity="0.01" stroke="#262626"/>
</svg>
