<svg width="22" height="22" viewBox="0 0 22 22" fill="none" xmlns="http://www.w3.org/2000/svg">
<g opacity="0.5">
<path d="M18.4551 18.1938L13.0754 9.7393L18.3837 3.89984C18.5038 3.76451 18.5657 3.58731 18.556 3.40667C18.5462 3.22602 18.4657 3.05648 18.3318 2.93481C18.1979 2.81314 18.0215 2.74915 17.8407 2.7567C17.66 2.76425 17.4895 2.84274 17.3662 2.97516L12.3097 8.53703L8.83007 3.06883C8.76802 2.97116 8.68233 2.89074 8.58093 2.83501C8.47952 2.77927 8.3657 2.75004 8.24999 2.75H4.12499C4.00172 2.74994 3.88071 2.78302 3.77461 2.84579C3.66852 2.90855 3.58125 2.99868 3.52195 3.10675C3.46264 3.21481 3.43348 3.33683 3.43752 3.46003C3.44156 3.58324 3.47866 3.70308 3.54491 3.80703L8.9246 12.2607L3.61624 18.1045C3.55425 18.171 3.50609 18.2493 3.47456 18.3346C3.44303 18.4199 3.42875 18.5107 3.43255 18.6016C3.43634 18.6925 3.45814 18.7817 3.49669 18.8641C3.53523 18.9466 3.58974 19.0205 3.65707 19.0817C3.7244 19.1429 3.8032 19.1901 3.88891 19.2206C3.97462 19.2511 4.06553 19.2643 4.15638 19.2594C4.24722 19.2545 4.3362 19.2316 4.41814 19.1921C4.50008 19.1526 4.57336 19.0972 4.63374 19.0291L9.6903 13.4673L13.1699 18.9355C13.2325 19.0323 13.3184 19.1119 13.4198 19.1669C13.5211 19.2218 13.6347 19.2504 13.75 19.25H17.875C17.9981 19.25 18.119 19.2169 18.225 19.1541C18.3309 19.0914 18.4181 19.0014 18.4774 18.8935C18.5367 18.7855 18.5659 18.6637 18.5619 18.5406C18.558 18.4175 18.5211 18.2978 18.4551 18.1938ZM14.1273 17.875L5.3771 4.125H7.86929L16.6229 17.875H14.1273Z" fill="#2F2F2F"/>
</g>
</svg>
