<svg width="22" height="22" viewBox="0 0 22 22" fill="none" xmlns="http://www.w3.org/2000/svg">
<g opacity="0.5">
<path d="M18.4551 18.1938L13.0754 9.7393L18.3838 3.89984C18.5039 3.76451 18.5657 3.58731 18.556 3.40667C18.5463 3.22602 18.4658 3.05648 18.3319 2.93481C18.198 2.81314 18.0216 2.74915 17.8408 2.7567C17.6601 2.76425 17.4896 2.84274 17.3663 2.97516L12.3097 8.53703L8.83013 3.06883C8.76808 2.97116 8.68239 2.89074 8.58099 2.83501C8.47959 2.77927 8.36576 2.75004 8.25005 2.75H4.12505C4.00178 2.74994 3.88077 2.78302 3.77467 2.84579C3.66858 2.90855 3.58131 2.99868 3.52201 3.10675C3.4627 3.21481 3.43355 3.33683 3.43759 3.46003C3.44163 3.58324 3.47872 3.70308 3.54497 3.80703L8.92466 12.2607L3.6163 18.1045C3.55431 18.171 3.50615 18.2493 3.47462 18.3346C3.44309 18.4199 3.42881 18.5107 3.43261 18.6016C3.4364 18.6925 3.45821 18.7817 3.49675 18.8641C3.53529 18.9466 3.5898 19.0205 3.65713 19.0817C3.72446 19.1429 3.80326 19.1901 3.88897 19.2206C3.97468 19.2511 4.06559 19.2643 4.15644 19.2594C4.24729 19.2545 4.33626 19.2316 4.4182 19.1921C4.50014 19.1526 4.57343 19.0972 4.6338 19.0291L9.69036 13.4673L13.17 18.9355C13.2325 19.0323 13.3184 19.1119 13.4198 19.1669C13.5212 19.2218 13.6347 19.2504 13.7501 19.25H17.8751C17.9982 19.25 18.1191 19.2169 18.225 19.1541C18.331 19.0914 18.4182 19.0014 18.4774 18.8935C18.5367 18.7855 18.5659 18.6637 18.562 18.5406C18.5581 18.4175 18.5212 18.2978 18.4551 18.1938ZM14.1273 17.875L5.37716 4.125H7.86935L16.6229 17.875H14.1273Z" fill="white"/>
</g>
</svg>
